<svg xmlns="http://www.w3.org/2000/svg" viewBox="0 0 24 24" width="24" height="24">
  <g stroke="#c8c8c8" stroke-width="1.9" stroke-linecap="round">
    <line x1="12" y1="12" x2="12" y2="2.5"  transform="rotate(0 12 12)"/>
    <line x1="12" y1="12" x2="12" y2="6.0"  transform="rotate(30 12 12)"/>
    <line x1="12" y1="12" x2="12" y2="2.5"  transform="rotate(60 12 12)"/>
    <line x1="12" y1="12" x2="12" y2="6.0"  transform="rotate(90 12 12)"/>
    <line x1="12" y1="12" x2="12" y2="2.5"  transform="rotate(120 12 12)"/>
    <line x1="12" y1="12" x2="12" y2="6.0"  transform="rotate(150 12 12)"/>
    <line x1="12" y1="12" x2="12" y2="2.5"  transform="rotate(180 12 12)"/>
    <line x1="12" y1="12" x2="12" y2="6.0"  transform="rotate(210 12 12)"/>
    <line x1="12" y1="12" x2="12" y2="2.5"  transform="rotate(240 12 12)"/>
    <line x1="12" y1="12" x2="12" y2="6.0"  transform="rotate(270 12 12)"/>
    <line x1="12" y1="12" x2="12" y2="2.5"  transform="rotate(300 12 12)"/>
    <line x1="12" y1="12" x2="12" y2="6.0"  transform="rotate(330 12 12)"/>
  </g>
</svg>
